<?xml version="1.0" standalone="no"?><!DOCTYPE svg PUBLIC "-//W3C//DTD SVG 1.1//EN" "http://www.w3.org/Graphics/SVG/1.1/DTD/svg11.dtd"><svg t="1509853044256" class="icon" style="" viewBox="0 0 1024 1024" version="1.1" xmlns="http://www.w3.org/2000/svg" p-id="2468" xmlns:xlink="http://www.w3.org/1999/xlink" width="200" height="200"><defs><style type="text/css"></style></defs><path d="M1000 800 792 800 792 1008C792 1016.832 784.832 1024 776 1024 767.168 1024 760 1016.832 760 1008L760 800 552 800C543.168 800 536 792.832 536 784 536 775.168 543.168 768 552 768L760 768 760 560C760 551.168 767.168 544 776 544 784.832 544 792 551.168 792 560L792 768 1000 768C1008.832 768 1016 775.168 1016 784 1016 792.832 1008.832 800 1000 800ZM472 576.144C468.64 576.144 465.392 575.76 462.048 575.648 228.112 580.976 40 771.616 40 1006.496 38.816 1007.008 8.736 1008.272 8 1006.496 8 787.296 160.64 604.08 365.472 555.952 257.52 513.824 180.992 409.904 180.992 288.064 180.992 128.976 311.28 0 472 0 632.72 0 763.008 128.976 763.008 288.064 763.008 447.168 632.72 576.144 472 576.144ZM472 31.952C330.608 31.952 216 146.4 216 287.568 216 428.752 330.608 543.184 472 543.184 472 543.184 472 543.184 472 543.184 472 543.184 472 543.184 472 543.184 613.392 543.184 728 428.752 728 287.568 728 146.4 613.392 31.952 472 31.952Z" p-id="2469"></path></svg>