<?xml version="1.0" standalone="no"?><!DOCTYPE svg PUBLIC "-//W3C//DTD SVG 1.1//EN" "http://www.w3.org/Graphics/SVG/1.1/DTD/svg11.dtd"><svg t="1509007828480" class="icon" style="" viewBox="0 0 1366 1024" version="1.1" xmlns="http://www.w3.org/2000/svg" p-id="1169" xmlns:xlink="http://www.w3.org/1999/xlink" width="266.796875" height="200"><defs><style type="text/css"></style></defs><path d="M1297.066667 602.941201 68.266667 602.941201C30.72 602.941201 0 572.377457 0 535.021773 0 497.666082 30.72 467.102338 68.266667 467.102338L1297.066667 467.102338C1334.613333 467.102338 1365.333333 497.666082 1365.333333 535.021773 1365.333333 572.377457 1334.613333 602.941201 1297.066667 602.941201ZM1297.066667 195.424618 68.266667 195.424618C30.72 195.424618 0 164.860873 0 127.50519 0 90.149499 30.72 59.585761 68.266667 59.585761L1297.066667 59.585761C1334.613333 59.585761 1365.333333 90.149499 1365.333333 127.50519 1365.333333 164.860873 1334.613333 195.424618 1297.066667 195.424618ZM1297.066667 1010.457784 68.266667 1010.457784C30.72 1010.457784 0 979.89404 0 942.538349 0 905.182665 30.72 874.618921 68.266667 874.618921L1297.066667 874.618921C1334.613333 874.618921 1365.333333 905.182665 1365.333333 942.538349 1365.333333 979.89404 1334.613333 1010.457784 1297.066667 1010.457784Z" p-id="1170"></path></svg>