<?xml version="1.0" standalone="no"?><!DOCTYPE svg PUBLIC "-//W3C//DTD SVG 1.1//EN" "http://www.w3.org/Graphics/SVG/1.1/DTD/svg11.dtd"><svg t="1509066382817" class="icon" style="" viewBox="0 0 1025 1024" version="1.1" xmlns="http://www.w3.org/2000/svg" p-id="5877" xmlns:xlink="http://www.w3.org/1999/xlink" width="200.1953125" height="200"><defs><style type="text/css"></style></defs><path d="M838.129956 73.130604c-18.244053 0-33.170095-14.931761-33.170095-33.175814l0-6.778977c0-18.249771-14.931761-33.175814-33.175814-33.175814l-6.819004 0c-18.249771 0-33.175814 14.926043-33.175814 33.175814l0 6.778977c0 18.244053-14.926043 33.175814-33.175814 33.175814L325.778284 73.130604c-18.244053 0-33.170095-14.931761-33.170095-33.175814l0-6.778977c0-18.249771-14.93319-33.175814-33.175814-33.175814l-6.819004 0c-18.244053 0-33.175814 14.926043-33.175814 33.175814l0 6.778977c0 18.244053-14.926043 33.175814-33.175814 33.175814l-153.08593 0c-18.249771 0-33.175814 14.927472-33.175814 33.175814l0 884.523487c0 18.244053 14.926043 33.170095 33.175814 33.170095l957.716992 0c18.244053 0 33.170095-14.926043 33.170095-33.170095l0-884.530635c0-18.242623-14.926043-33.170095-33.170095-33.170095L838.129956 73.129174 838.129956 73.130604zM950.942304 917.739329c0 18.244053-14.926043 33.170095-33.170095 33.170095l-811.454355 0c-18.244053 0-33.175814-14.926043-33.175814-33.170095l0-738.283723c0-18.244053 14.931761-33.170095 33.175814-33.170095l79.949608 0c18.244053 0 33.175814 14.926043 33.175814 33.170095l0 79.97677c0 18.244053 14.926043 33.175814 33.170095 33.175814l6.819004 0c18.248341 0 33.175814-14.931761 33.175814-33.175814l0-79.97677c0-18.244053 14.926043-33.170095 33.175814-33.170095l372.835131 0c18.244053 0 33.170095 14.926043 33.170095 33.170095l0 79.97677c0 18.244053 14.931761 33.175814 33.175814 33.175814l6.819004 0c18.249771 0 33.175814-14.931761 33.175814-33.175814l0-79.97677c0-18.244053 14.926043-33.170095 33.175814-33.170095l79.636534 0c18.244053 0 33.175814 14.926043 33.175814 33.170095l0 738.283723L950.942304 917.739329zM950.942304 917.739329M465.044651 387.28513l132.122853 0c36.588175 0 61.646943-1.33378 75.207755-4.06567-4.06567 18.993143-5.430901 42.019076-4.06567 69.110679l0 319.126538c0 16.261252-4.764726 27.091604-14.228417 32.522504-9.496571 5.398021-35.254395 10.830351-77.240591 16.261252-1.36523-20.326923-8.131341-39.953361-20.326923-58.946503 44.718086 10.863231 67.077844 8.830396 67.077844-6.098506L623.591503 655.596507 426.423641 655.596507c-12.195582 66.410239-42.685251 123.325337-91.469008 170.743863-17.627912-14.927472-35.92057-23.724988-54.882262-26.423999 67.744019-37.920525 102.299359-107.031205 103.666019-207.330608L383.73839 480.786973c0-31.155844-0.699055-52.150372-2.032835-63.012174 0-13.529362-0.699055-25.058768-2.032835-34.55534 8.131341 1.36666 17.595032 2.032835 28.456834 2.032835C423.025576 386.618955 441.985838 387.28513 465.044651 387.28513zM428.456477 423.873305l0 77.240591 195.135026 0L623.591503 423.873305 428.456477 423.873305zM428.456477 539.734906l0 77.240591 195.135026 0 0-77.240591L428.456477 539.734906z" p-id="5878"></path></svg>