<?xml version="1.0" standalone="no"?><!DOCTYPE svg PUBLIC "-//W3C//DTD SVG 1.1//EN" "http://www.w3.org/Graphics/SVG/1.1/DTD/svg11.dtd"><svg t="1509066401881" class="icon" style="" viewBox="0 0 1024 1024" version="1.1" xmlns="http://www.w3.org/2000/svg" p-id="6651" xmlns:xlink="http://www.w3.org/1999/xlink" width="200" height="200"><defs><style type="text/css"></style></defs><path d="M946 1007.888 78 1007.888C43.76 1007.888 16 980.128 16 945.888L16 170.88c0-34.24 27.76-62 62-62l247.776 0L325.776 47.104c0-17.136 13.872-30.992 30.992-30.992 17.136 0 31.008 13.872 31.008 30.992l0 61.776 248 0L635.776 47.104c0-17.136 13.872-30.992 31.008-30.992 17.136 0 30.992 13.872 30.992 30.992l0 61.776 248.224 0C980.24 108.88 1008 136.64 1008 170.88l0 774.992C1008 980.128 980.24 1007.888 946 1007.888zM946 170.88 697.776 170.88l0 31.232c0 17.136-13.856 30.992-30.992 30.992-17.136 0-31.008-13.856-31.008-30.992L635.776 170.88l-248 0 0 31.232c0 17.136-13.872 30.992-31.008 30.992-17.136 0-30.992-13.856-30.992-30.992L325.776 170.88 78 170.88l0 774.992 868 0L946 170.88zM639.392 438.176 485.92 756.848l-72.56 0 152.912-304.72 0-1.12L395.504 451.008l0-56.928 243.888 0L639.392 438.176z" p-id="6652"></path></svg>