<?xml version="1.0" standalone="no"?><!DOCTYPE svg PUBLIC "-//W3C//DTD SVG 1.1//EN" "http://www.w3.org/Graphics/SVG/1.1/DTD/svg11.dtd"><svg t="1509870140998" class="icon" style="" viewBox="0 0 1024 1024" version="1.1" xmlns="http://www.w3.org/2000/svg" p-id="3787" xmlns:xlink="http://www.w3.org/1999/xlink" width="200" height="200"><defs><style type="text/css"></style></defs><path d="M511.432 145C308.823 145 144 309.823 144 512.412c0 202.608 164.823 367.431 367.432 367.431 202.608 0 367.431-164.823 367.431-367.431C878.863 309.823 714.04 145 511.432 145m0 696.095c-181.248 0-328.684-147.435-328.684-328.683 0-181.228 147.436-328.663 328.684-328.663s328.683 147.435 328.683 328.663c0 181.227-147.435 328.683-328.683 328.683m26.173-355.123V363h-51.651v122.972H362.14v51.651h123.794V661.5h51.651V537.623H660.49l-0.009-51.651h0.04" p-id="3788"></path></svg>