<?xml version="1.0" standalone="no"?><!DOCTYPE svg PUBLIC "-//W3C//DTD SVG 1.1//EN" "http://www.w3.org/Graphics/SVG/1.1/DTD/svg11.dtd"><svg t="1510017026301" class="icon" style="" viewBox="0 0 1024 1024" version="1.1" xmlns="http://www.w3.org/2000/svg" p-id="1408" xmlns:xlink="http://www.w3.org/1999/xlink" width="200" height="200"><defs><style type="text/css"></style></defs><path d="M512 958.24a986.88 986.88 0 0 0 416-91.2l-16-60.32a128 128 0 0 0-79.04-88.64l-160-48L352 669.76l-160 48a128 128 0 0 0-80 88.96l-16 60.32a986.88 986.88 0 0 0 416 91.2z" fill="#8999B2" p-id="1409"></path><path d="M584 679.04c-8 18.08-36.8 26.56-72 26.56s-64-8.48-72-26.56a183.84 183.84 0 0 1-56-45.92v142.4L407.36 800a141.76 141.76 0 0 0 209.28 0L640 775.52v-142.4a183.84 183.84 0 0 1-56 45.92z" fill="#F3CAC2" p-id="1410"></path><path d="M381.76 641.76l198.72 198.72 133.28-152.64-204-190.08-128 144z" fill="#E2BAB5" p-id="1411"></path><path d="M672 400v-65.76a72.8 72.8 0 0 0-32-64l16-16c-88-8-74.88 32-144 32s-75.36-35.04-145.28-35.04L384 270.24c-32 14.88-32 36.8-32 64v64c-32 0-40.32 16-40.32 66.08 0 38.24 5.44 64 42.56 77.28a187.68 187.68 0 0 0 17.12 67.68 140.8 140.8 0 0 0 68.8 68.8c8.16 16 36.8 24.32 72 24.32s64-7.68 72-24.32a157.76 157.76 0 0 0 57.28-51.68A176 176 0 0 0 672 534.88a78.08 78.08 0 0 0 41.28-73.28c0-39.04-4-69.76-41.28-61.6z" fill="#FBD3CA" p-id="1412"></path><path d="M641.28 626.4A176 176 0 0 0 672 534.88a78.08 78.08 0 0 0 41.28-73.28c0-39.04-3.84-69.76-41.28-62.08v-65.28a72.8 72.8 0 0 0-32-64l16-16c-88-8-74.88 32-144 32a169.76 169.76 0 0 1-19.52-1.12 741.28 741.28 0 0 0-48 271.04c0 32 1.12 86.56 3.2 131.52a109.12 109.12 0 0 0 64 14.88c35.2 0 64-7.68 72-24.32a157.76 157.76 0 0 0 57.6-51.84z" fill="#F3CAC2" p-id="1413"></path><path d="M860.64 475.68c-20.48-37.28-32-70.88-60.64-101.44l48-32a298.56 298.56 0 0 1-48-64 156.64 156.64 0 0 0-80-80l48-32a378.08 378.08 0 0 0-160-32l16-48c-78.72 16-96 48-96 48s-112-48-256 16l64 24c-96 32-69.92 74.08-150.72 137.28l54.72 6.72c-48 64-32 96-80 160l64 16c-32 65.28-16 80-32 128l64-16s-6.88 56.8-11.2 91.36l78.24-29.44 48-58.88a187.68 187.68 0 0 1-17.12-67.68c-36.8-13.6-42.24-39.2-42.24-77.6 0-51.52 12.96-71.68 40.32-84.32v-45.44a86.24 86.24 0 0 1 51.36-72.96l-29.92-12.32c70.08 0 69.6 37.12 138.72 37.12s48-32 144-32l-21.12 11.04A97.12 97.12 0 0 1 672 334.24V400c37.28-7.68 44.64 39.84 40 78.72a86.88 86.88 0 0 1-42.24 64 152 152 0 0 1-28.48 84.8l32 36.64 29.76 7.36 67.04 24.16-16-96 55.2 12.8a641.12 641.12 0 0 0-5.92-119.52z" fill="#AAAAAA" p-id="1414"></path><path d="M260.64 699.52l-32-3.84c2.56-20.96 5.92-48.8 8.32-68.32l-62.24 16a4 4 0 0 1-4.8-5.12c24.16-75.68 8.8-81.12 32-138.4l-64.8-7.84a4 4 0 0 1-2.72-6.4c62.56-83.36 40-93.44 77.76-155.04l-44.8-6.88a4 4 0 0 1-2.4-6.56c76.32-85.12 65.6-112 126.72-141.92l-52.8-20.32a4 4 0 0 1 0-7.36c88.32-39.2 182.08-65.44 284.16-32 38.88-39.2 134.24-52.48 118.24-49.12a4 4 0 0 1 4.64 5.12l-16 48a612.48 612.48 0 0 1 184.48 49.92 4 4 0 0 1 0 7.2l-57.12 28.64c53.28 34.08 48 71.84 101.76 125.6l10.4 10.4a4 4 0 0 1 0 6.08l-45.92 30.56c23.2 33.28 32 65.76 48 88l10.08 13.76a4 4 0 0 1-2.08 6.24l-56 16.96c5.28 46.56-7.36 65.44 3.52 103.68l4.96 19.68a4 4 0 0 1-4.8 4.96l-50.88-11.84 14.72 71.52-32 6.4-24.64-120.48 55.52 12.96c-4.16-40 7.84-43.2-3.68-109.44l46.56-14.08c-21.6-40.16-16-48-57.12-96l48-32c-68.32-78.08-25.6-91.2-142.72-129.12a4 4 0 0 1 0-7.52l64-26.24a525.28 525.28 0 0 0-157.92-26.72l13.44-40.48c-46.4 14.72-54.88 28.8-64.96 44.8a322.08 322.08 0 0 0-217.28-3.84L384 175.2c-134.08 44.64-99.2 43.68-161.44 124.16l46.4 7.04c-68.8 91.84-41.92 95.04-80.8 159.04l62.08 7.52c-37.92 77.44-27.52 77.6-36.16 128l60.96-16c-3.04 16.16-9.76 75.52-14.4 114.56z" fill="#333333" p-id="1415"></path><path d="M580.96 468m-20 0a20 20 0 1 0 40 0 20 20 0 1 0-40 0Z" fill="#333333" p-id="1416"></path><path d="M444.96 468m-20 0a20 20 0 1 0 40 0 20 20 0 1 0-40 0Z" fill="#333333" p-id="1417"></path><path d="M432 606.24l11.04-16a30.24 30.24 0 0 1 41.92-12.32 53.6 53.6 0 0 0 54.08 0 30.24 30.24 0 0 1 41.92 12.32l11.04 16a232.8 232.8 0 0 1-80 23.68 252 252 0 0 1-80-23.68z" fill="#AAAAAA" p-id="1418"></path><path d="M512 641.92a262.88 262.88 0 0 1-84.8-24.8l-8.96-4A4 4 0 0 1 416 608l16-23.68a42.08 42.08 0 0 1 57.6-16 41.6 41.6 0 0 0 42.24 0 41.76 41.76 0 0 1 32-4.16A43.36 43.36 0 0 1 592 584.8l16 22.08a4 4 0 0 1-1.44 5.92l-8.32 4.16A245.44 245.44 0 0 1 512 641.92z m-61.6-40.96A186.72 186.72 0 0 0 512 617.92a195.36 195.36 0 0 0 61.76-16l-2.72-3.68a20.64 20.64 0 0 0-12.32-10.72 17.92 17.92 0 0 0-13.76 1.76 65.92 65.92 0 0 1-65.92 0 17.92 17.92 0 0 0-13.76-1.76 19.2 19.2 0 0 0-11.68 9.6zM407.04 438.08a16 16 0 0 1-11.36-27.36 71.2 71.2 0 0 1 50.4-20.48 16 16 0 0 1 0 32 35.68 35.68 0 0 0-27.36 11.04 16 16 0 0 1-11.68 4.8zM618.88 438.08a16 16 0 0 1-11.36-4.64 37.6 37.6 0 0 0-26.24-11.04 16 16 0 0 1-16-16 16 16 0 0 1 16-16 69.44 69.44 0 0 1 48 20.48 16 16 0 0 1-11.36 27.36z" fill="#333333" p-id="1419"></path><path d="M512 718.24c-36.16 0-69.44-14.72-83.52-36.32-68.32-37.12-80-74.72-87.84-119.84l-0.8-4.32c0-2.88-1.28-6.24-1.92-9.76a52 52 0 0 1-12.96-6.4c-29.6-20.64-29.28-55.2-29.12-80v-6.08c0-63.04 35.36-80 56.16-80v32c-12 0-24.16 14.88-24.16 48v6.4c0 25.12 0 43.84 16 53.92a26.4 26.4 0 0 0 10.24 3.68 16 16 0 0 1 14.4 14.4c0 4.96 2.08 12.96 3.2 18.24l0.96 5.12C378.24 592 384 622.24 448 656a16 16 0 0 1 6.88 7.04A68 68 0 0 0 512 686.24a68 68 0 0 0 57.6-23.36A16 16 0 0 1 576 656c64-33.44 69.12-64 75.36-99.2l0.96-5.12c1.12-5.28 2.72-13.28 3.2-18.24a16 16 0 0 1 14.4-14.4 25.76 25.76 0 0 0 10.24-3.68c14.56-10.24 16-28.8 16-53.92v-6.4c0-33.12-12.16-48-24.16-48v-32c20.8 0 56.16 16.8 56.16 80v6.08c0 25.28 0 59.84-29.12 80a52 52 0 0 1-12.96 6.4c0 3.52-1.28 6.88-1.92 9.76l-0.8 4.32c-8 45.12-19.52 82.72-87.84 119.84-14.08 22.56-47.36 36.8-83.52 36.8zM931.36 882.56a16 16 0 0 1-4 0 16 16 0 0 1-16-12.16L896 810.56a112 112 0 0 0-69.12-77.6l-158.24-48a16 16 0 0 1 9.12-30.72l160 48A144 144 0 0 1 928 802.88l15.04 60.32a16 16 0 0 1-11.68 19.36zM96 883.04a16 16 0 0 1-4 0 16 16 0 0 1-11.68-19.36l15.68-60.8a144 144 0 0 1 88.8-99.84l161.76-48a16 16 0 1 1 9.28 30.72l-160 48A112 112 0 0 0 128 810.56l-16 60.32a16 16 0 0 1-16 12.16z" fill="#333333" p-id="1420"></path><path d="M656 622.24l-48 112-96 80-96-80-47.2-112-48.8 80 32 112 26.56-28.64 28.16 28.16a147.68 147.68 0 0 0 209.44 0L640 782.24l32 32 32-112z" fill="#FFFFFF" p-id="1421"></path><path d="M653.12 798.88a169.92 169.92 0 0 1-141.12 73.6 169.76 169.76 0 0 1-141.12-73.76 16 16 0 0 1 26.24-18.24 140 140 0 0 0 229.76 0 16 16 0 1 1 26.24 18.24z" fill="#333333" p-id="1422"></path><path d="M405.68 746.656l20.448-24.608 95.984 79.776-20.464 24.608z" fill="#333333" p-id="1423"></path><path d="M368.8 622.4l-47.68 79.84 31.52 111.36L416 734.24l-47.2-111.84z" fill="#FFFFFF" p-id="1424"></path><path d="M352 829.6h-3.2a16 16 0 0 1-12.16-11.36l-32-112a16 16 0 0 1 1.6-12.48l48-80a16 16 0 0 1 14.88-7.84 16 16 0 0 1 13.6 9.76l47.2 112a16 16 0 0 1-2.24 16l-64 80a16 16 0 0 1-11.68 5.92zM338.4 704l21.12 74.72 37.92-48-32-73.92z" fill="#333333" p-id="1425"></path><path d="M656 622.24l46.88 80-31.52 111.36L608 734.24l48-112z" fill="#FFFFFF" p-id="1426"></path><path d="M672 829.6a16 16 0 0 1-12.48-6.08l-64-80a16 16 0 0 1-2.24-16l48-112a16 16 0 0 1 28.48-1.76l46.88 80a16 16 0 0 1 1.6 12.48l-32 112a16 16 0 0 1-12.16 11.36z m-44.8-97.76l37.92 48L685.6 704l-27.36-46.72z" fill="#333333" p-id="1427"></path><path d="M505.44 858.56l-32-7.2a71.2 71.2 0 0 1 16-30.56l1.28-1.28 106.24-96.96 21.6 23.68-105.44 96a39.04 39.04 0 0 0-7.68 16.32zM688 406.88v-72.64a69.28 69.28 0 0 0-26.24-59.04 115.04 115.04 0 0 0-19.52-11.52l52.8-10.88-33.12-12.8c-52.64-21.12-73.92-4.64-92.8 9.92A80 80 0 0 1 512 270.08a80 80 0 0 1-57.28-20.64c-18.72-14.56-40.16-31.04-92.8-9.92l-33.12 13.28 52.8 10.88a114.88 114.88 0 0 0-19.52 11.52A69.28 69.28 0 0 0 336 334.24v72.64l-13.12 9.12a165.6 165.6 0 0 1 38.4 44 3.52 3.52 0 0 0 6.72-1.6v-124.16c0-23.2 9.12-34.72 39.04-49.6L432 272a114.72 114.72 0 0 0 80 29.76A114.72 114.72 0 0 0 592 272l24.96 12.32c29.92 14.88 39.04 26.56 39.04 49.6v124.16a3.52 3.52 0 0 0 6.72 1.6A165.6 165.6 0 0 1 701.28 416z" fill="#333333" p-id="1428"></path><path d="M336 334.24v56.8a22.08 22.08 0 0 0-25.92 7.84c-17.44 18.08-11.52-47.04-11.52-47.04zM688 334.24v56.8a22.08 22.08 0 0 1 25.92 7.84c17.44 18.08 11.52-47.04 11.52-47.04z" fill="#AAAAAA" p-id="1429"></path></svg>