<?xml version="1.0" standalone="no"?><!DOCTYPE svg PUBLIC "-//W3C//DTD SVG 1.1//EN" "http://www.w3.org/Graphics/SVG/1.1/DTD/svg11.dtd"><svg t="1510017042122" class="icon" style="" viewBox="0 0 1024 1024" version="1.1" xmlns="http://www.w3.org/2000/svg" p-id="1537" xmlns:xlink="http://www.w3.org/1999/xlink" width="200" height="200"><defs><style type="text/css"></style></defs><path d="M560 873.76m-12 0a12 12 0 1 0 24 0 12 12 0 1 0-24 0Z" fill="#333333" p-id="1538"></path><path d="M938.72 882.56a16 16 0 0 0 0-3.2 14.88 14.88 0 0 0 0-2.08l-15.04-75.36a112 112 0 0 0-82.4-86.56l-126.56-32L678.88 624a168.32 168.32 0 0 0 23.84-82.08v-68.8a32 32 0 0 0 0-3.84 112 112 0 0 0 28.32-57.76c6.56-30.72 4.16-52.64-7.36-66.72a40.64 40.64 0 0 0-11.68-9.6 107.2 107.2 0 0 0 24-73.6c0-32 5.76-88.8-63.04-137.6-46.72-33.12-82.08-32-152.8-28.64A240 240 0 0 1 592 71.36 4 4 0 0 0 592 64C327.84 19.68 333.6 147.68 333.6 147.68c-35.36 14.88-45.6 34.56-45.6 105.12a133.44 133.44 0 0 0 23.84 81.76 40.16 40.16 0 0 0-13.6 10.88c-11.52 14.08-13.92 36-7.36 66.72a112.8 112.8 0 0 0 28.32 57.76 32 32 0 0 0 0 3.84v68.8a177.12 177.12 0 0 0 22.72 88l-32 52.96-126.56 32a112 112 0 0 0-82.4 86.56l-15.04 75.52a16 16 0 0 0 4.48 14.08l0.8 0.8a16 16 0 0 0 2.88 2.08A15.04 15.04 0 0 0 96 896a1020 1020 0 0 0 416 89.6A1000.96 1000.96 0 0 0 929.6 896a16 16 0 0 0 8.8-11.36 16 16 0 0 0 0.32-2.08z m-46.4-74.24l12.64 63.2A967.52 967.52 0 0 1 784 915.2V733.92l49.28 12.48a80 80 0 0 1 58.88 61.92zM528 953.28V832l70.24-82.72 39.68 62.4a20.16 20.16 0 0 0 16.96 9.28h2.56a20.16 20.16 0 0 0 16-12.64l40-91.36 6.56 1.6v213.12a981.28 981.28 0 0 1-192 21.6zM310.56 716.16l40 91.36a20 20 0 0 0 16 12.64h2.56a20 20 0 0 0 16.96-9.28l39.68-62.4L496 832v121.92a981.44 981.44 0 0 1-192-22.24V717.76zM512 800l-64.96-76.48a161.76 161.76 0 0 0 61.92 8.48h5.44a146.72 146.72 0 0 0 64-10.4z m62.72-247.04a16 16 0 0 1-16 16h-9.6a6.4 6.4 0 0 1-6.4-5.92 9.92 9.92 0 0 0-9.28-10.08h-45.28a9.92 9.92 0 0 0-9.28 10.08 6.4 6.4 0 0 1-6.4 5.92h-9.6a16 16 0 0 1-16-16V529.6a16 16 0 0 1 12-16 220.16 220.16 0 0 1 52-8.64 220 220 0 0 1 52 8.64 16 16 0 0 1 12 16z m112 144.8l-33.92 77.12-34.24-53.76 28-52.16c4.32-4.8 8.64-9.92 12.64-15.04zM344.48 380.16a4 4 0 0 0 7.2-2.24v-43.2a68.96 68.96 0 0 1 21.6-53.28 4 4 0 0 0-1.28-6.88l-8.8-3.2-3.84-1.44-25.6-9.12H347.68l6.4-1.12h4.48l7.36-0.96L368 256l10.4-1.12 11.04-0.8h43.52c4.16 0 8.16 0.96 12.32 1.76 32 5.6 54.24 8.16 68.64 10.4a2.56 2.56 0 0 0 2.08-4.48 378.4 378.4 0 0 0-73.6-38.56c38.08 5.44 97.6 18.88 130.4 51.2a188.48 188.48 0 0 0 58.72 35.04 2.4 2.4 0 0 0 2.72-3.84 401.28 401.28 0 0 1-33.6-41.76c77.12 9.28 69.12 20.96 68.32 114.08a4 4 0 0 0 7.2 2.4c4.8-6.72 9.44-12.64 13.92-18.24a11.52 11.52 0 0 1 8.16 3.52c2.24 2.72 6.72 12.16 0.8 40a73.12 73.12 0 0 1-28.64 49.44v-20.64a4 4 0 0 0-7.84-1.28L642.24 496a32 32 0 0 1-12.64 16l-23.04 16a48 48 0 0 0-35.52-44 247.2 247.2 0 0 0-60.16-9.6 247.36 247.36 0 0 0-60.16 9.6A48 48 0 0 0 415.2 528l-23.04-16a32 32 0 0 1-12.64-16l-20.8-62.24a4 4 0 0 0-7.84 1.28v20.64a73.12 73.12 0 0 1-28.64-49.6c-5.92-27.68-1.28-37.12 0.96-39.84a11.84 11.84 0 0 1 8.32-3.52c4.48 5.28 8.32 10.88 12.96 17.44z m17.12 279.2a220.48 220.48 0 0 0 23.68 24.16l20.16 37.44-34.24 53.92-33.44-76.32z m-170.88 87.04l49.28-12.48v180.8a980 980 0 0 1-120.8-43.52l12.64-62.88a80 80 0 0 1 58.88-61.92z" fill="#333333" p-id="1539"></path><path d="M428.64 414.4m-20.16 0a20.16 20.16 0 1 0 40.32 0 20.16 20.16 0 1 0-40.32 0Z" fill="#333333" p-id="1540"></path><path d="M582.24 414.4m-20.16 0a20.16 20.16 0 1 0 40.32 0 20.16 20.16 0 1 0-40.32 0Z" fill="#333333" p-id="1541"></path></svg>