<?xml version="1.0" standalone="no"?><!DOCTYPE svg PUBLIC "-//W3C//DTD SVG 1.1//EN" "http://www.w3.org/Graphics/SVG/1.1/DTD/svg11.dtd"><svg t="1510016996870" class="icon" style="" viewBox="0 0 1024 1024" version="1.1" xmlns="http://www.w3.org/2000/svg" p-id="1280" xmlns:xlink="http://www.w3.org/1999/xlink" width="200" height="200"><defs><style type="text/css"></style></defs><path d="M384 539.2h256v302.56H384z" fill="#E5BBB5" p-id="1281"></path><path d="M512 969.76A987.04 987.04 0 0 0 923.04 880l-14.88-74.4a96 96 0 0 0-72-74.56L704 697.28l-48-80-52 110.4L512 825.76l-92.16-92.64L368 622.88l-48 80L188 736a96 96 0 0 0-72 74.56l-13.92 69.6A987.04 987.04 0 0 0 512 969.76z" fill="#DDDDDC" p-id="1282"></path><path d="M304 706.56l-64 16.64v54.56h64v-71.2zM240 931.52l4.48 1.12-4.48-1.28zM240 841.76h64v64h-64zM304 947.52l-11.36-2.4zM283.84 942.88q-17.6-4.16-35.04-8.96 17.44 4.8 35.04 8.96zM176 740.32a96 96 0 0 0-46.4 37.28H176zM176 910.72l-5.6-1.92zM176 841.76H112v43.36c16 7.36 33.76 14.08 50.88 20.64H176zM368 841.76h64v64h-64zM432 745.28l-7.68-7.84L384 777.76h48v-32.48zM592 841.76h64v64h-64zM597.44 735.04l-5.44 5.76v36.96h48l-42.56-42.72zM848 905.76h13.12c17.12-6.4 34.24-13.28 50.88-20.64v-43.36h-64zM848 910.72l6.08-2.24-6.08 2.08zM848 736v42.4h49.28A96 96 0 0 0 848 736zM776.64 933.44c-12.16 3.36-24.48 6.56-36.8 9.44q18.56-4.32 36.8-9.44zM720 947.52l11.36-2.72-11.36 2.4zM784 931.52l-4.96 1.6zM784 718.08l-64-16.64v76.32h64v-59.68zM720 841.76h64v64h-64zM368 841.76v-48l16-16h-80v64h64zM897.28 777.76a96 96 0 0 1 10.72 28.32l4 19.68v-48zM176 777.76h64v64h-64zM129.6 777.76H112v53.12l4-19.68a96 96 0 0 1 13.6-33.44zM592 841.76v-64h-32l-48 48-48-48h-32v64h160zM784 777.76h64v64h-64zM656 841.76h64v-64h-80l16 16v48z" fill="#A6B9C1" p-id="1283"></path><path d="M240 777.76h64v64h-64zM176 777.76H129.6a96 96 0 0 0-13.76 33.6L112 830.88v10.88h64zM368 841.76h64v-64h-48l-16 16v48zM656 841.76v-48l-16-16h-48v64h64zM897.28 777.76H848v64h64v-16l-4-19.68a96 96 0 0 0-10.72-28.32zM720 777.76h64v64h-64z" fill="#7D9BAA" p-id="1284"></path><path d="M784 905.76v25.6c21.6-6.24 43.04-13.28 64-20.8v-4.8zM740 942.88l-8.48 1.92zM779.04 932.8h-2.4zM861.6 905.76l-7.04 2.72zM292.64 944.96l-8.8-2.08zM162.4 905.76l8 2.88-7.52-2.88zM248.96 933.92l-4.48-1.12zM176 905.76v4.8c20.96 7.68 42.4 14.56 64 20.8v-25.6zM656 905.76v53.28q-32 4.64-64 7.2v-60.48H432v60.48q-32-2.56-64-7.2v-53.28h-64v41.6a983.84 983.84 0 0 0 208 22.4 983.84 983.84 0 0 0 208-22.4v-41.6z" fill="#A6B9C1" p-id="1285"></path><path d="M240 905.76v25.6l4.48 1.28 4.48 1.12q17.44 4.8 35.04 8.96l8.8 2.08 11.36 2.4v-41.6z" fill="#7D9BAA" p-id="1286"></path><path d="M162.88 905.76l7.52 2.88 5.6 1.92v-4.8z" fill="#A6B9C1" p-id="1287"></path><path d="M368 958.88q32 4.64 64 7.2v-60.32h-64zM592 966.08q32-2.56 64-7.2v-53.12h-64z" fill="#7D9BAA" p-id="1288"></path><path d="M848 910.56l6.08-2.08 7.04-2.72H848z" fill="#A6B9C1" p-id="1289"></path><path d="M720 905.76v41.6l11.36-2.4 8.48-1.92c12.32-2.88 24.64-6.08 36.8-9.44h2.4l4.96-1.6v-25.6z" fill="#7D9BAA" p-id="1290"></path><path d="M560 873.76m-12 0a12 12 0 1 0 24 0 12 12 0 1 0-24 0Z" fill="#333333" p-id="1291"></path><path d="M640 809.6z" fill="#535C63" p-id="1292"></path><path d="M510.72 633.44a130.72 130.72 0 0 1-54.24-7.36c-53.44-28.16-105.76-90.08-105.76-127.04v-32a75.68 75.68 0 0 1-44.32-58.4c-7.36-34.88-3.68-63.04 28.32-63.04v-48c0-80 48.96-161.12 176-161.12s176 81.6 176 161.12v48c32 0 35.68 28.16 28.32 63.04a75.68 75.68 0 0 1-44.32 58.4v32c0 37.12-52.32 99.04-105.76 127.04a130.72 130.72 0 0 1-54.24 7.36z" fill="#FBD3CA" p-id="1293"></path><path d="M688 351.04v-48c0-80-48.96-161.12-176-161.12-8.64 0-16 0-24.64 1.12A967.84 967.84 0 0 0 432 476.8a1212.96 1212.96 0 0 0 8 144 203.36 203.36 0 0 0 17.6 10.56 130.72 130.72 0 0 0 54.24 7.36 130.72 130.72 0 0 0 54.24-7.36c53.6-27.84 105.92-89.92 105.92-126.88v-32a75.68 75.68 0 0 0 44.32-58.4c7.36-34.88 3.68-63.04-28.32-63.04z" fill="#F3CAC2" p-id="1294"></path><path d="M428.64 414.4m-20.16 0a20.16 20.16 0 1 0 40.32 0 20.16 20.16 0 1 0-40.32 0Z" fill="#333333" p-id="1295"></path><path d="M582.24 414.4m-20.16 0a20.16 20.16 0 1 0 40.32 0 20.16 20.16 0 1 0-40.32 0Z" fill="#333333" p-id="1296"></path><path d="M378.88 277.12l-45.28-16a325.6 325.6 0 0 1 112-5.28" fill="#FBD3CA" p-id="1297"></path><path d="M603.52 272a64 64 0 0 1 45.28 16A140.16 140.16 0 0 1 672 336l2.4-84.96L592 249.6zM571.04 272c-26.08-32-91.04-41.92-124.96-48 4 22.08 39.84 19.68 58.08 32 4.8 3.2 0 2.88-5.92 2.08-12.48-2.08-23.36-3.84-44-8-45.76-9.12-119.2 8.8-119.2 8.8a1320.96 1320.96 0 0 1 135.2 13.92 612.48 612.48 0 0 0 75.36 10.4 39.84 39.84 0 0 1 18.4 6.08 321.44 321.44 0 0 0 73.28 33.12L624 300.16c-16-8.16-42.72-16-52.96-28.16z" fill="#E1C7C4" p-id="1298"></path><path d="M672.8 124.16c-46.72-33.12-82.08-32-152.8-28.64A240 240 0 0 1 592 71.36 4 4 0 0 0 592 64C327.84 19.68 333.6 147.68 333.6 147.68c-35.36 14.88-45.6 34.56-45.6 105.12 0 60 22.88 80 56.48 128a4 4 0 0 0 7.2-2.24v-43.2a68.96 68.96 0 0 1 21.6-53.28 4 4 0 0 0-1.28-6.88l-24.48-8.8a4 4 0 0 1 0-7.84 304 304 0 0 1 97.6-2.4c32 5.6 54.24 8.16 68.64 10.4a2.56 2.56 0 0 0 2.08-4.48 378.4 378.4 0 0 0-73.6-38.56c38.08 5.44 97.6 18.88 130.4 51.2a188.48 188.48 0 0 0 58.72 35.04 2.4 2.4 0 0 0 2.72-3.84 401.44 401.44 0 0 1-33.6-41.76c77.12 9.28 69.12 20.96 68.32 114.08a4 4 0 0 0 7.2 2.4C710.08 333.12 736 321.6 736 261.6c0-32.32 5.6-88.8-63.2-137.44z" fill="#333333" p-id="1299"></path><path d="M693.44 451.2a101.28 101.28 0 0 1-22.72 16v-32a4 4 0 0 0-7.84-1.28L642.24 496a32 32 0 0 1-12.64 16l-23.04 16a48 48 0 0 0-35.52-44 247.2 247.2 0 0 0-60.16-9.6 247.36 247.36 0 0 0-60.16 9.6A48 48 0 0 0 415.2 528l-23.04-16a32 32 0 0 1-12.64-16l-20.8-62.24a4 4 0 0 0-7.84 1.28v32a101.28 101.28 0 0 1-22.72-16 32 32 0 0 0-9.28 22.4v68.8c0 75.04 42.4 136.96 122.88 179.2a147.36 147.36 0 0 0 67.36 11.04h5.44a144 144 0 0 0 65.44-11.04c59.52-32 122.88-104.8 122.88-179.2v-68.8a32 32 0 0 0-9.44-22.24z m-246.72 78.4a16 16 0 0 1 12-16 220.16 220.16 0 0 1 52-8.64 220 220 0 0 1 52 8.64 16 16 0 0 1 12 16v24.16a16 16 0 0 1-16 16h-9.6a6.4 6.4 0 0 1-6.4-5.92 9.92 9.92 0 0 0-9.28-10.08h-45.28a9.92 9.92 0 0 0-9.28 10.08 6.4 6.4 0 0 1-6.4 5.92h-9.6a16 16 0 0 1-16-16z" fill="#333333" p-id="1300"></path></svg>